<?xml version="1.0" standalone="no"?>
<!DOCTYPE svg PUBLIC "-//W3C//DTD SVG 20010904//EN"
 "http://www.w3.org/TR/2001/REC-SVG-20010904/DTD/svg10.dtd">
<svg version="1.0" xmlns="http://www.w3.org/2000/svg"
 width="700.000000pt" height="700.000000pt" viewBox="0 0 700.000000 700.000000"
 preserveAspectRatio="xMidYMid meet">
<metadata>
Created by potrace 1.11, written by Peter Selinger 2001-2013
</metadata>
<g transform="translate(0.000000,700.000000) scale(0.100000,-0.100000)"
fill="#000000" stroke="none">
<path d="M3240 6463 c-41 -7 -82 -17 -92 -22 -14 -9 -86 -24 -163 -35 -16 -2
-21 -12 -23 -44 -2 -24 1 -43 7 -43 6 -1 17 -2 24 -3 14 -2 14 -3 -7 -111 -9
-44 -18 -96 -21 -115 -3 -19 -21 -116 -40 -215 -18 -99 -36 -193 -39 -210 -6
-33 -14 -77 -21 -115 -3 -14 -8 -38 -10 -55 -3 -16 -13 -68 -21 -115 -16 -85
-21 -110 -28 -152 -6 -36 -18 -101 -23 -123 -5 -27 -51 -274 -56 -305 -3 -14
-12 -63 -21 -110 -8 -47 -18 -103 -22 -125 -3 -22 -8 -43 -10 -46 -2 -4 -6
-24 -9 -45 -3 -22 -12 -73 -20 -114 -8 -41 -17 -91 -20 -110 -3 -19 -8 -42
-10 -50 -2 -8 -7 -31 -10 -50 -5 -29 -48 -266 -60 -327 -7 -40 -107 -580 -111
-603 -6 -33 -36 -198 -73 -395 -17 -88 -33 -176 -36 -195 -3 -19 -10 -57 -15
-85 -17 -84 -51 -268 -56 -305 -3 -19 -9 -51 -14 -70 -5 -19 -12 -55 -15 -80
-3 -25 -8 -52 -11 -61 -3 -10 -6 -31 -9 -48 -2 -17 -6 -38 -9 -48 -3 -10 -7
-34 -10 -53 -3 -19 -8 -45 -10 -56 -2 -12 -7 -38 -10 -58 -3 -19 -10 -55 -15
-78 -6 -24 -12 -59 -16 -78 -3 -19 -12 -69 -20 -110 -7 -41 -17 -95 -20 -120
-4 -25 -15 -61 -25 -81 -17 -34 -24 -60 -21 -85 1 -14 167 -78 181 -69 17 11
41 78 36 101 -3 11 4 68 15 125 11 57 22 120 25 139 2 19 9 55 14 80 5 25 17
90 26 145 16 94 27 127 42 123 4 -1 21 1 37 5 17 4 39 9 50 12 66 15 155 36
185 45 19 6 85 22 145 36 61 14 117 28 125 30 94 23 90 23 90 0 0 -11 -5 -52
-10 -91 -7 -60 -15 -131 -23 -210 -1 -11 -9 -25 -18 -32 -13 -10 -18 -68 -10
-114 0 -4 42 -17 91 -29 123 -30 123 -31 135 145 4 50 8 92 10 95 1 3 6 37 9
75 3 39 8 86 10 105 8 63 18 144 22 180 2 19 6 51 9 70 2 19 7 62 10 95 3 33
8 71 10 85 2 14 6 52 10 85 3 33 8 80 11 105 2 25 9 79 14 120 5 41 11 95 14
120 37 339 36 328 55 324 18 -4 132 -13 173 -13 29 -1 33 -10 43 -106 3 -27 8
-68 10 -90 3 -22 7 -62 10 -90 3 -27 7 -66 10 -85 3 -19 7 -62 10 -95 3 -33 8
-71 10 -85 3 -14 7 -52 10 -85 3 -33 8 -71 10 -85 2 -14 7 -54 11 -90 4 -36 8
-76 9 -90 2 -14 6 -56 10 -95 4 -38 8 -76 10 -85 2 -8 6 -44 10 -80 3 -36 9
-81 11 -100 3 -19 7 -60 9 -90 3 -30 7 -71 10 -90 9 -67 16 -130 30 -265 3
-33 8 -71 10 -85 3 -14 7 -56 11 -95 3 -38 7 -77 9 -85 2 -8 6 -46 10 -85 4
-38 9 -77 10 -85 2 -8 6 -49 10 -90 4 -41 9 -84 11 -94 2 -10 0 -24 -4 -30 -9
-15 -3 -129 8 -140 13 -13 200 -75 228 -76 14 0 22 6 23 18 3 53 -2 116 -10
126 -11 13 -17 45 -26 131 -3 33 -8 71 -10 85 -2 14 -6 50 -10 80 -3 30 -8 71
-10 90 -3 19 -7 55 -10 80 -3 25 -10 88 -17 140 -19 155 -21 149 37 170 28 10
167 62 309 115 143 53 263 92 267 88 4 -4 28 -114 55 -243 36 -178 47 -253 45
-311 l-2 -76 83 -23 c128 -35 148 -39 154 -28 9 14 6 108 -4 121 -5 7 -15 46
-22 87 -8 41 -15 81 -16 88 -1 7 -10 50 -19 95 -25 120 -42 207 -51 257 -2 14
-7 36 -10 50 -3 14 -8 36 -10 50 -3 14 -11 57 -19 95 -8 39 -16 84 -19 100 -3
17 -8 41 -11 55 -3 14 -7 36 -10 50 -2 14 -14 72 -26 130 -11 58 -23 116 -25
130 -3 14 -16 81 -30 150 -13 69 -26 134 -28 145 -2 11 -20 101 -40 200 -19
99 -37 191 -40 205 -2 14 -18 93 -34 175 -17 83 -35 177 -41 210 -6 33 -13 69
-15 80 -10 44 -57 282 -62 310 -2 17 -7 37 -9 45 -2 8 -7 29 -9 45 -3 17 -37
190 -76 385 -39 195 -72 366 -75 380 -2 14 -23 117 -45 230 -22 113 -43 219
-46 235 -3 17 -9 48 -14 70 -5 22 -12 55 -15 74 -3 19 -19 101 -35 181 -16 80
-32 162 -35 181 -3 19 -10 52 -15 74 -9 40 -48 237 -56 285 -2 14 -9 45 -14
70 -5 25 -12 56 -14 70 -3 14 -10 49 -15 79 -8 38 -8 57 -1 61 10 6 15 35 11
71 0 9 -11 19 -23 22 -13 2 -108 28 -213 56 -443 119 -391 108 -475 94z m-53
-183 c30 -11 30 -11 42 -126 7 -64 14 -125 16 -137 3 -23 11 -86 20 -172 3
-27 7 -66 10 -85 2 -19 7 -68 11 -108 l7 -73 -24 6 c-13 3 -68 14 -123 25 -54
10 -101 22 -104 25 -4 4 12 114 34 230 2 11 7 36 10 55 4 19 8 44 10 55 2 11
9 49 15 85 6 36 12 70 13 75 2 6 7 33 11 60 5 28 10 53 11 58 1 4 2 14 3 22 1
18 0 18 38 5z m301 -75 c23 -7 24 -9 17 -80 -3 -41 -8 -84 -10 -97 -7 -31 -18
-138 -19 -165 0 -19 -10 -23 -12 -5 -1 19 -16 160 -19 182 -2 14 -6 48 -9 75
-4 28 -8 59 -10 70 -5 27 2 37 22 31 10 -2 28 -7 40 -11z m227 -66 c3 -13 7
-35 10 -49 2 -14 7 -40 10 -59 3 -19 8 -37 10 -40 2 -4 6 -26 10 -51 4 -25 8
-47 10 -50 2 -3 6 -23 9 -45 4 -22 8 -47 11 -55 2 -8 6 -26 9 -40 3 -14 9 -46
14 -72 l9 -46 -26 9 c-14 6 -27 10 -29 9 -1 -1 -27 2 -58 6 l-56 7 6 88 c4 49
8 95 11 101 2 7 6 42 10 78 3 36 8 79 10 95 2 17 7 56 10 88 7 60 12 67 20 26z
m25 -619 c51 -12 96 -23 100 -25 4 -2 13 -37 20 -77 8 -40 14 -75 15 -78 1 -3
5 -23 9 -45 4 -22 16 -80 27 -130 10 -49 21 -106 24 -125 3 -19 13 -65 21
-102 14 -62 13 -94 -4 -84 -4 2 -39 7 -77 11 -39 3 -88 8 -110 10 -22 2 -71 7
-110 11 -38 3 -74 11 -78 18 -8 10 -2 196 7 241 2 11 7 52 11 90 4 39 8 81 10
95 2 14 7 57 11 95 4 39 9 73 10 78 1 4 2 14 3 22 1 19 -1 19 111 -5z m-586
-47 c32 -3 81 -11 109 -17 48 -11 50 -13 52 -46 1 -19 5 -60 9 -90 4 -30 9
-71 11 -90 2 -19 6 -57 9 -85 3 -27 9 -77 12 -110 8 -68 8 -89 3 -162 -4 -47
-9 -57 -29 -55 -3 0 -59 3 -125 7 -66 4 -136 8 -155 10 -19 2 -59 5 -88 6 -29
1 -55 6 -58 10 -3 5 9 88 26 186 17 98 35 203 41 233 5 30 11 64 13 75 2 11 7
40 12 65 4 25 9 48 10 53 1 4 2 12 3 18 1 7 16 9 44 5 23 -4 68 -9 101 -13z
m631 -708 c139 -9 199 -16 207 -23 5 -6 30 -120 53 -242 2 -14 9 -45 15 -70 5
-25 12 -56 14 -70 3 -14 9 -47 15 -75 16 -75 18 -87 25 -130 4 -22 9 -48 12
-57 5 -16 -13 -17 -225 -17 l-231 1 -1 31 c0 18 -2 41 -4 52 -2 11 -7 47 -10
80 -3 33 -8 71 -10 85 -6 41 -15 122 -21 175 -2 28 -6 61 -9 75 -2 14 -6 52
-10 85 -3 33 -7 69 -9 80 -5 31 0 34 52 30 26 -2 88 -6 137 -10z m-468 -57
c20 2 22 -2 18 -31 -2 -17 -7 -59 -10 -92 -3 -33 -10 -89 -15 -125 -5 -36 -12
-94 -15 -130 -4 -36 -9 -78 -11 -95 -13 -106 -16 -131 -17 -142 0 -9 -62 -12
-253 -12 l-252 1 4 26 c3 15 11 63 19 107 8 44 17 96 20 115 3 19 14 82 25
140 26 140 27 147 36 203 l7 48 211 -7 c116 -4 221 -6 233 -6z m157 -718 c4
-41 9 -88 11 -105 8 -52 25 -207 41 -355 3 -30 9 -82 14 -115 4 -33 6 -62 3
-65 -2 -2 -40 -5 -84 -5 l-80 -1 6 61 c3 33 12 112 20 175 8 63 17 142 20 175
3 33 8 74 10 90 2 17 7 55 10 85 3 30 8 69 10 85 2 17 4 36 4 44 2 34 9 0 15
-69z m-221 -5 c0 -5 -4 -46 -8 -90 -4 -44 -9 -82 -10 -85 -2 -3 -6 -39 -10
-80 -4 -41 -8 -82 -10 -90 -2 -8 -6 -44 -9 -80 -10 -96 -17 -144 -22 -149 -6
-6 -11 -7 -104 -15 -170 -16 -368 -36 -407 -42 -46 -7 -46 -7 -28 71 2 11 7
43 11 70 3 28 8 53 10 56 2 4 6 24 9 45 3 22 10 62 15 89 22 116 39 213 45
250 3 22 9 43 13 47 15 15 508 18 505 3z m907 -57 c54 -253 117 -584 112 -590
-6 -6 -109 -11 -434 -23 -78 -2 -78 -2 -79 24 0 14 -2 37 -4 51 -9 59 -25 199
-30 250 -3 30 -10 89 -15 130 -5 41 -12 103 -16 137 l-6 62 43 3 c24 2 128 4
231 6 l187 2 11 -52z m-984 -634 c-3 -9 -6 -24 -6 -35 0 -19 -5 -20 -77 -13
-43 4 -87 8 -98 10 -11 1 -37 3 -58 3 -56 1 -37 17 30 25 62 7 127 17 130 19
1 1 20 3 43 4 35 2 41 0 36 -13z m342 -59 c33 0 42 -4 42 -17 0 -14 -8 -16
-47 -13 -115 9 -152 16 -147 29 3 8 20 10 58 6 29 -3 72 -6 94 -5z m794 -62
c3 -15 31 -155 62 -311 32 -156 56 -285 54 -287 -5 -5 -53 -15 -188 -39 -47
-8 -148 -26 -225 -40 -77 -14 -143 -26 -147 -26 -3 0 -9 28 -13 63 -4 34 -8
73 -10 87 -2 14 -6 50 -10 80 -6 57 -10 93 -21 170 -3 25 -7 63 -9 85 -3 42
-12 114 -21 178 l-6 37 49 1 c26 1 64 2 83 4 19 1 85 6 145 10 61 4 111 8 112
9 1 1 33 3 71 4 69 3 70 3 74 -25z m-1492 -18 c25 -3 90 -8 145 -11 55 -4 114
-8 130 -10 17 -1 36 -3 44 -3 10 -1 12 -17 7 -81 -4 -44 -9 -86 -11 -93 -2 -6
-6 -39 -9 -72 -6 -58 -15 -118 -19 -121 -1 -1 -24 -4 -52 -7 -27 -3 -84 -11
-125 -17 -41 -6 -95 -13 -120 -16 -25 -2 -54 -6 -66 -9 -11 -2 -43 -7 -70 -10
-27 -3 -73 -10 -103 -15 -30 -6 -55 -10 -56 -10 -1 0 6 42 15 93 10 50 20 110
24 132 3 22 15 90 26 150 11 61 20 111 20 113 0 3 129 -4 220 -13z m276 -533
c-2 -9 -7 -48 -10 -87 -4 -38 -9 -81 -11 -95 -4 -25 -11 -87 -21 -170 -8 -73
-14 -112 -19 -120 -3 -4 -22 -11 -42 -15 -21 -3 -148 -30 -283 -60 -135 -30
-261 -57 -281 -60 l-36 -7 17 94 c10 51 21 111 24 133 4 22 13 76 22 120 8 44
17 98 20 120 9 78 7 76 114 90 82 11 114 16 170 25 30 5 75 12 100 15 58 8
105 15 155 24 74 13 84 12 81 -7z m1381 -267 c7 -33 15 -73 18 -90 3 -16 19
-95 35 -175 16 -80 32 -161 35 -180 3 -19 8 -42 11 -51 4 -14 -16 -23 -98 -50
-57 -18 -107 -34 -113 -35 -5 -1 -94 -30 -196 -63 -197 -64 -216 -68 -216 -48
0 20 -13 150 -17 177 -2 14 -7 52 -11 85 -4 33 -8 74 -11 90 -4 35 -11 98 -19
175 -3 30 -8 65 -10 77 -4 19 1 24 32 32 42 11 254 60 293 67 14 3 54 12 90
20 36 9 79 18 95 21 17 3 32 7 35 9 2 3 11 3 19 2 10 -2 20 -25 28 -63z"/>
</g>
</svg>
